
<svg xmlns="http://www.w3.org/2000/svg">
  <symbol>
    <path id="twitter" d="M16 3.039a6.839 6.839 0 0 1-1.89.518 3.262 3.262 0 0 0 1.443-1.813 6.555 6.555 0 0 1-2.08.794A3.28 3.28 0 0 0 7.799 4.78c0 .26.022.51.076.748a9.284 9.284 0 0 1-6.761-3.431 3.285 3.285 0 0 0 1.008 4.384A3.24 3.24 0 0 1 .64 6.078v.036a3.295 3.295 0 0 0 2.628 3.223 3.274 3.274 0 0 1-.86.108 2.9 2.9 0 0 1-.621-.056 3.311 3.311 0 0 0 3.065 2.285 6.59 6.59 0 0 1-4.067 1.399c-.269 0-.527-.012-.785-.045A9.234 9.234 0 0 0 5.032 14.5c6.036 0 9.336-5 9.336-9.334 0-.145-.005-.285-.012-.424A6.544 6.544 0 0 0 16 3.039Z" fill="#0b0b0d"/>
  </symbol>
</svg>

<svg xmlns="http://www.w3.org/2000/svg" width="40" height="40">
  <symbol>
    <path id="elips" d="M40 19.9999C40 25.5228 37.7614 30.5228 34.1421 34.1421C30.5228 37.7614 25.5228 39.9999 20 39.9999C14.4772 39.9999 9.47715 37.7614 5.85786 34.1421C2.23858 30.5228 0 25.5228 0 19.9999C0 14.4771 2.23858 9.47709 5.85786 5.8578C9.47715 2.23852 14.4772 -6.10352e-05 20 -6.10352e-05C25.5228 -6.10352e-05 30.5228 2.23852 34.1421 5.8578C37.7614 9.47709 40 14.4771 40 19.9999Z" fill="#4D5AE5"/>
  </symbol>
</svg>
<!-- instagram-icon.svg -->
<svg id="instagram-icon" xmlns="http://www.w3.org/2000/svg" viewBox="0 0 24 24" fill="none" stroke="currentColor" stroke-width="2" stroke-linecap="round" stroke-linejoin="round">
   <rect x="2" y="2" width="20" height="20" rx="5" ry="5" />
   <path d="M16 11.37A4.97 4.97 0 0 1 18.63 9 4.97 4.97 0 0 1 21 11.37M8 14.63A9.86 9.86 0 0 1 4.36 13 10 10 0 1 1 8 14.63z" />
   <line x1="8" y1="6" x2="8" y2="6.01" />
</svg>

