<svg width="22" height="22" viewBox="0 0 22 22" fill="none" xmlns="http://www.w3.org/2000/svg">
<path d="M14.3768 5.24944C12.3257 3.61944 9.4189 3.59227 7.44932 5.1951C6.03665 6.3361 5.33032 8.04759 5.33032 10.2617C5.33032 11.7287 6.6479 13.8341 6.8109 14.1058C6.82448 14.1193 7.91115 15.5863 8.16923 17.3386L8.23715 17.7733H13.7112L13.7791 17.3386C14.0372 15.5863 15.1239 14.1193 15.1511 14.0786C15.3005 13.8477 16.6181 11.7423 16.6181 10.2753C16.6045 8.10193 15.8574 6.4176 14.3768 5.24944ZM10.8587 8.12909C9.93507 8.15626 9.0929 8.72676 8.73974 9.58251C8.65824 9.77267 8.46806 9.89493 8.26431 9.89493C8.1964 9.89493 8.12849 9.88135 8.06057 9.85418C7.80249 9.74551 7.68023 9.44667 7.7889 9.18859C8.30506 7.96609 9.5004 7.15109 10.818 7.11034C11.0896 7.09676 11.3341 7.32768 11.3341 7.61293C11.3613 7.8846 11.144 8.11551 10.8587 8.12909Z" fill="#193566"/>
<path d="M13.6705 20.069H8.01982C7.73457 20.069 7.50366 19.838 7.50366 19.5528C7.50366 19.2675 7.73457 19.0366 8.01982 19.0366H13.6705C13.9557 19.0366 14.1867 19.2675 14.1867 19.5528C14.1867 19.838 13.9557 20.069 13.6705 20.069Z" fill="#193566"/>
<path d="M12.3936 19.7974H9.17432V21.1421H12.3936V19.7974Z" fill="#193566"/>
<path d="M10.7364 2.85888C10.4511 2.85888 10.2202 2.62797 10.2202 2.34272V0.902881C10.2202 0.617631 10.4511 0.386719 10.7364 0.386719C11.0216 0.386719 11.2525 0.617631 11.2525 0.902881V2.34272C11.2525 2.64155 11.0216 2.85888 10.7364 2.85888Z" fill="#193566"/>
<path d="M6.64791 4.01349C6.47133 4.01349 6.29474 3.91841 6.19966 3.75541L5.47974 2.50574C5.34391 2.26124 5.42541 1.94882 5.66991 1.81299C5.91441 1.67716 6.22683 1.75867 6.36266 2.00317L7.08257 3.25283C7.21841 3.49733 7.13691 3.80974 6.89241 3.94557C6.82449 3.99991 6.74299 4.01349 6.64791 4.01349Z" fill="#193566"/>
<path d="M3.68669 7.06967C3.60519 7.06967 3.5101 7.0425 3.4286 7.00175L2.17894 6.28184C1.93444 6.14601 1.85294 5.8336 1.98878 5.5891C2.12461 5.3446 2.43703 5.2631 2.68153 5.39893L3.93119 6.11885C4.17569 6.25468 4.25719 6.56709 4.12136 6.81159C4.03986 6.97459 3.86327 7.06967 3.68669 7.06967Z" fill="#193566"/>
<path d="M2.6408 11.1856H1.20098C0.915727 11.1856 0.684814 10.9547 0.684814 10.6695C0.684814 10.3842 0.915727 10.1533 1.20098 10.1533H2.6408C2.92605 10.1533 3.15698 10.3842 3.15698 10.6695C3.15698 10.9547 2.92605 11.1856 2.6408 11.1856Z" fill="#193566"/>
<path d="M2.55934 15.994C2.38276 15.994 2.20617 15.8989 2.11109 15.7359C1.97526 15.4914 2.05676 15.179 2.30126 15.0432L3.55093 14.3232C3.79543 14.1874 4.10784 14.2689 4.24367 14.5134C4.3795 14.7579 4.298 15.0703 4.0535 15.2062L2.80384 15.9261C2.73593 15.9668 2.64084 15.994 2.55934 15.994Z" fill="#193566"/>
<path d="M19.2668 15.8041C19.1853 15.8041 19.0902 15.7769 19.0087 15.7361L17.759 15.0162C17.5145 14.8804 17.433 14.568 17.5689 14.3235C17.7047 14.079 18.0171 13.9975 18.2616 14.1333L19.5113 14.8532C19.7558 14.9891 19.8373 15.3015 19.7014 15.546C19.6064 15.709 19.4434 15.8041 19.2668 15.8041Z" fill="#193566"/>
<path d="M20.5029 10.9547H19.063C18.7778 10.9547 18.5469 10.7238 18.5469 10.4385C18.5469 10.1533 18.7778 9.92236 19.063 9.92236H20.5029C20.7881 9.92236 21.019 10.1533 21.019 10.4385C21.019 10.7238 20.7881 10.9547 20.5029 10.9547Z" fill="#193566"/>
<path d="M17.9085 6.86606C17.7319 6.86606 17.5553 6.77098 17.4602 6.60798C17.3244 6.36348 17.4059 6.05107 17.6504 5.91523L18.9 5.19532C19.1445 5.05949 19.457 5.14098 19.5928 5.38548C19.7286 5.62998 19.6471 5.9424 19.4026 6.07824L18.153 6.79815C18.085 6.85248 17.99 6.86606 17.9085 6.86606Z" fill="#193566"/>
<path d="M14.8657 3.90509C14.7842 3.90509 14.6892 3.87793 14.6077 3.83718C14.3632 3.70134 14.2817 3.38892 14.4175 3.14442L15.1374 1.89476C15.2732 1.65026 15.5856 1.56876 15.8301 1.7046C16.0746 1.84043 16.1562 2.15284 16.0203 2.39734L15.3004 3.64701C15.2053 3.81001 15.0287 3.90509 14.8657 3.90509Z" fill="#193566"/>
</svg>
